PathFileType	4	(x/y/z)	S05_P20_T08
DataRate	CameraRate	NumFrames	NumMarkers	Units	OrigDataRate	OrigDataStartFrame	OrigNumFrames
240	240	9	50	mm	240	338	386
Frame#	Time	Sternum			R.Acromium			L.Acromium			Top.Head			R.ASIS			L.ASIS			R.PSIS			L.PSIS			R.Great.Tro			L.Great.Tro			R.Iliac.Crest			L.Iliac.Crest			V.Sacral			R.Thigh.Upper.Post			R.Thigh.Lower.Ant			R.Thigh.Lower.Post			R.Thigh.Upper.Ant			R.Knee.Lat			R.Knee.Med			R.Shank.Upper.Post			R.Shank.Lower.Ant			R.Shank.Lower.Post			R.Shank.Upper.Ant			R.Ankle.Lat			R.Ankle.Med			R.Heel.Upper			R.Heel.Med			R.Heel.Lat			R.Toe.Lat			R.Toe.Med			R.Toe.Tip			L.Thigh.Upper.Post			L.Thigh.Lower.Ant			L.Thigh.Lower.Post			L.Thigh.Upper.Ant			L.Knee.Lat			L.Shank.Upper.Post			L.Shank.Lower.Ant			L.Shank.Lower.Post			L.Shank.Upper.Ant			L.Ankle.Lat			L.Ankle.Med			L.Heel.Upper			L.Heel.Med			L.Heel.Lat			L.Toe.Lat			L.Toe.Med			L.Toe.Tip			Cervical.Spine			Back			
		X1	Y1	Z1	X2	Y2	Z2	X3	Y3	Z3	X4	Y4	Z4	X5	Y5	Z5	X6	Y6	Z6	X7	Y7	Z7	X8	Y8	Z8	X9	Y9	Z9	X10	Y10	Z10	X11	Y11	Z11	X12	Y12	Z12	X13	Y13	Z13	X14	Y14	Z14	X15	Y15	Z15	X16	Y16	Z16	X17	Y17	Z17	X18	Y18	Z18	X19	Y19	Z19	X20	Y20	Z20	X21	Y21	Z21	X22	Y22	Z22	X23	Y23	Z23	X24	Y24	Z24	X25	Y25	Z25	X26	Y26	Z26	X27	Y27	Z27	X28	Y28	Z28	X29	Y29	Z29	X30	Y30	Z30	X31	Y31	Z31	X32	Y32	Z32	X33	Y33	Z33	X34	Y34	Z34	X35	Y35	Z35	X36	Y36	Z36	X37	Y37	Z37	X38	Y38	Z38	X39	Y39	Z39	X40	Y40	Z40	X41	Y41	Z41	X42	Y42	Z42	X43	Y43	Z43	X44	Y44	Z44	X45	Y45	Z45	X46	Y46	Z46	X47	Y47	Z47	X48	Y48	Z48	X49	Y49	Z49	X50	Y50	Z50	

338	1.4042	458.46	1246.3	324.03	365.13	1507.9	475.79	380.19	1525.8	143.02	377.75	1821.4	309.95	380.28	1000.9	443.55	390.81	1003.5	194.11	182.74	1022.4	353.82	188.03	1029.9	262.63	303.84	920	506.57	294.98	931.37	117.44	289.33	1084.7	481.07	305.41	1084.4	145.93	171.89	990.6	318.47	418.72	713.53	501.45	481.3	658.34	442.32	428.27	625.47	480	466.58	744.84	463.03	449.74	535.53	456.75	461.36	522.97	321.79	463.92	286.07	445.92	545.79	249.9	455.76	494.08	216.11	433.06	514.72	320.8	466.64	581.3	144.49	441.79	588.22	174.27	356.7	550.74	65.015	373.66	579.7	44.911	347.63	567.59	42.078	411.61	709.63	108.15	486.67	748.06	142.92	375.92	783.81	189.86	428.53	258.86	697.94	128.81	324.6	613.52	157.24	252.52	604.08	148.48	337.22	701.22	137.27	241.57	509.79	158.49	127.09	329.95	161.97	177.5	256.81	167.93	107.48	261.6	182.48	192.96	324.97	153.77	100.88	120.07	194.47	141.17	130.52	280.18	34.275	74.161	250.86	47.993	46.968	281.16	33.905	47.507	221.29	211.43	38.145	151.95	244.98	45.864	270.11	304.47	52.763	210.78	320.23	1558.5	313.11	198.87	1287.5	302.06
339	1.4083	463.82	1245.2	324.49	370.49	1506.8	476.55	385.57	1525.2	143.85	383	1820.5	310.9	385.83	1000.1	443.75	396.19	1002.6	194.27	188.16	1021.4	354.19	193.41	1028.8	262.99	309.61	919.19	506.76	300.18	930.54	117.67	294.78	1083.8	481.37	310.69	1083.5	146.17	177.36	989.51	318.83	425.17	713.1	501.5	487.81	658.05	442.31	434.76	625.1	479.9	473.05	744.5	463.18	456.16	535.04	456.77	467.68	522.58	321.96	469.17	285.5	445.79	550.85	248.9	455.32	498.88	215.41	432.83	520.2	319.93	466.36	585.73	143.48	441.28	592.47	173.12	356.11	554.45	64.42	373.29	583.09	44.054	347.15	571.26	41.415	411.2	714.04	106.37	485.55	752.17	140.75	374.64	788.44	187.49	427.01	263.55	697.22	129.05	329.08	612.63	157.49	257.03	603.37	148.73	341.93	700.34	137.44	245.66	509.13	158.7	129.62	330.31	162.27	179.36	256.74	168.1	109.43	262.16	182.76	195.42	324.75	153.97	101.47	120.64	194.71	141.95	130.75	280.41	34.552	74.917	251.18	48.202	47.637	281.43	34.034	48.287	221.59	211.46	38.127	152	245.14	45.659	270.12	304.63	52.377	210.75	325.55	1557.6	313.94	204.2	1286.7	302.49
340	1.4125	469.19	1244.2	324.98	375.87	1505.7	477.34	390.96	1524.6	144.71	388.24	1819.6	311.87	391.4	999.38	443.97	401.6	1001.8	194.44	193.61	1020.3	354.55	198.81	1027.8	263.35	315.39	918.4	506.95	305.42	929.7	117.91	300.22	1082.8	481.67	316	1082.6	146.41	182.86	988.42	319.18	431.65	712.7	501.58	494.37	657.81	442.34	441.28	624.76	479.81	479.57	744.2	463.4	462.62	534.57	456.81	474.08	522.24	322.15	474.23	284.95	445.64	555.67	247.82	454.84	503.42	214.7	432.56	525.54	319	466.05	589.8	142.4	440.71	596.39	171.87	355.47	557.68	63.83	372.86	585.97	43.147	346.64	574.42	40.744	410.75	718.02	104.36	484.38	755.89	138.25	373.31	792.74	184.75	425.41	268.34	696.49	129.31	333.69	611.75	157.74	261.67	602.65	149	346.74	699.47	137.63	249.92	508.47	158.92	132.28	330.73	162.59	181.32	256.71	168.28	111.48	262.78	183.04	198	324.55	154.18	102.11	121.29	194.95	142.78	131.05	280.64	34.87	75.812	251.5	48.435	48.443	281.71	34.187	49.205	221.9	211.48	38.114	152.06	245.31	45.463	270.13	304.8	51.981	210.73	330.88	1556.7	314.79	209.53	1285.9	302.93
341	1.4167	474.56	1243.2	325.48	381.26	1504.6	478.16	396.37	1524	145.59	393.49	1818.8	312.86	396.99	998.69	444.2	407.04	1001	194.63	199.07	1019.3	354.91	204.23	1026.7	263.7	321.19	917.65	507.15	310.71	928.88	118.16	305.68	1082	481.98	321.33	1081.7	146.66	188.39	987.35	319.54	438.13	712.32	501.67	500.97	657.6	442.41	447.83	624.44	479.71	486.1	743.93	463.67	469.11	534.14	456.84	480.51	521.95	322.37	479.11	284.4	445.46	560.29	246.67	454.32	507.72	213.98	432.26	530.74	318.05	465.71	593.55	141.26	440.11	600	170.54	354.78	560.51	63.262	372.39	588.4	42.209	346.1	577.12	40.085	410.27	721.6	102.15	483.16	759.27	135.47	371.93	796.75	181.7	423.76	273.25	695.75	129.6	338.45	610.88	158	266.46	601.91	149.29	351.66	698.62	137.83	254.36	507.81	159.14	135.07	331.2	162.92	183.39	256.73	168.47	113.64	263.47	183.34	200.69	324.39	154.4	102.8	122.03	195.19	143.67	131.43	280.86	35.237	76.862	251.81	48.695	49.402	281.99	34.371	50.275	222.21	211.49	38.108	152.12	245.49	45.28	270.13	304.96	51.576	210.71	336.21	1555.9	315.67	214.87	1285	303.38
342	1.4208	479.94	1242.3	326	386.67	1503.5	479.01	401.79	1523.4	146.49	398.74	1817.9	313.86	402.61	998.04	444.46	412.51	1000.2	194.83	204.55	1018.3	355.27	209.68	1025.7	264.05	327.01	916.92	507.36	316.03	928.06	118.43	311.15	1081.1	482.3	326.68	1080.8	146.91	193.94	986.29	319.9	444.6	711.95	501.77	507.6	657.43	442.51	454.38	624.14	479.6	492.65	743.69	463.98	475.6	533.73	456.88	486.97	521.68	322.59	483.84	283.87	445.28	564.72	245.48	453.78	511.82	213.25	431.94	535.81	317.07	465.35	597.01	140.08	439.49	603.35	169.14	354.06	562.96	62.733	371.9	590.42	41.263	345.54	579.42	39.457	409.78	724.83	99.789	481.92	762.33	132.45	370.53	800.5	178.37	422.08	278.27	695.01	129.92	343.37	610.03	158.24	271.41	601.16	149.58	356.7	697.79	138.04	258.99	507.14	159.36	138	331.74	163.26	185.56	256.81	168.65	115.93	264.24	183.64	203.53	324.26	154.61	103.56	122.88	195.42	144.62	131.88	281.06	35.662	78.085	252.12	48.992	50.534	282.27	34.594	51.517	222.52	211.51	38.108	152.18	245.67	45.11	270.14	305.11	51.161	210.69	341.54	1555	316.58	220.21	1284.3	303.85
343	1.425	485.33	1241.4	326.55	392.09	1502.5	479.88	407.22	1522.9	147.41	403.99	1817.1	314.89	408.24	997.43	444.73	418.01	999.48	195.05	210.06	1017.3	355.64	215.16	1024.7	264.41	332.85	916.23	507.57	321.41	927.26	118.72	316.64	1080.3	482.64	332.06	1079.9	147.17	199.52	985.25	320.27	451.05	711.58	501.89	514.22	657.28	442.63	460.92	623.86	479.49	499.19	743.46	464.34	482.09	533.35	456.92	493.41	521.45	322.83	488.43	283.36	445.08	568.98	244.26	453.21	515.73	212.52	431.6	540.77	316.07	464.98	600.22	138.88	438.86	606.47	167.7	353.33	565.11	62.261	371.4	592.1	40.329	344.99	581.35	38.877	409.28	727.75	97.3	480.67	765.12	129.23	369.13	804.02	174.81	420.38	283.41	694.25	130.26	348.45	609.19	158.48	276.52	600.4	149.89	361.86	696.99	138.26	263.83	506.48	159.58	141.09	332.35	163.61	187.87	256.94	168.83	118.35	265.09	183.93	206.51	324.18	154.82	104.4	123.84	195.65	145.64	132.42	281.24	36.157	79.498	252.41	49.332	51.857	282.54	34.865	52.948	222.82	211.53	38.118	152.25	245.87	44.956	270.14	305.26	50.738	210.67	346.88	1554.3	317.51	225.56	1283.5	304.33
344	1.4292	490.72	1240.5	327.11	397.52	1501.5	480.78	412.65	1522.4	148.35	409.25	1816.4	315.93	413.9	996.86	445.03	423.55	998.78	195.29	215.58	1016.3	356.01	220.66	1023.7	264.77	338.7	915.56	507.79	326.83	926.47	119.02	322.14	1079.5	482.98	337.47	1079.1	147.45	205.12	984.24	320.65	457.46	711.22	502	520.82	657.13	442.78	467.42	623.58	479.36	505.71	743.23	464.72	488.54	532.99	456.96	499.81	521.23	323.08	492.9	282.87	444.88	573.1	243.03	452.65	519.49	211.81	431.27	545.63	315.08	464.6	603.23	137.68	438.24	609.41	166.23	352.59	567	61.859	370.9	593.48	39.429	344.45	582.99	38.362	408.8	730.39	94.72	479.43	767.68	125.85	367.73	807.35	171.06	418.68	288.69	693.5	130.62	353.72	608.38	158.69	281.81	599.63	150.2	367.15	696.22	138.49	268.9	505.81	159.79	144.35	333.03	163.95	190.31	257.14	169	120.92	266.04	184.23	209.65	324.16	155.01	105.33	124.93	195.86	146.76	133.06	281.41	36.735	81.118	252.68	49.726	53.39	282.8	35.194	54.585	223.11	211.54	38.141	152.32	246.07	44.821	270.14	305.4	50.306	210.64	352.23	1553.5	318.47	230.91	1282.8	304.84
345	1.4333	496.12	1239.7	327.68	402.95	1500.5	481.7	418.08	1521.9	149.31	414.52	1815.7	316.99	419.57	996.34	445.34	429.11	998.13	195.56	221.13	1015.4	356.39	226.19	1022.7	265.13	344.56	914.93	508.02	332.3	925.71	119.34	327.66	1078.7	483.34	342.9	1078.3	147.73	210.75	983.25	321.03	463.81	710.87	502.12	527.38	656.99	442.94	473.86	623.3	479.21	512.19	743.01	465.12	494.96	532.65	457	506.15	521.02	323.33	497.27	282.41	444.69	577.1	241.8	452.08	523.13	211.12	430.94	550.39	314.1	464.23	606.07	136.5	437.62	612.18	164.75	351.87	568.67	61.54	370.41	594.62	38.581	343.92	584.38	37.923	408.33	732.8	92.08	478.22	770.03	122.35	366.37	810.5	167.16	417.02	294.11	692.74	131	359.18	607.59	158.89	287.28	598.85	150.5	372.59	695.48	138.73	274.2	505.14	159.99	147.8	333.8	164.29	192.9	257.42	169.15	123.66	267.08	184.51	212.97	324.19	155.2	106.35	126.16	196.05	147.98	133.81	281.54	37.41	82.964	252.93	50.187	55.151	283.05	35.595	56.446	223.39	211.56	38.179	152.38	246.29	44.705	270.14	305.53	49.867	210.62	357.58	1552.8	319.45	236.27	1282.1	305.36
346	1.4375	501.52	1238.9	328.28	408.4	1499.6	482.64	423.51	1521.5	150.29	419.79	1815	318.06	425.27	995.86	445.68	434.71	997.52	195.84	226.7	1014.5	356.78	231.74	1021.8	265.51	350.44	914.34	508.27	337.83	924.98	119.69	333.21	1078	483.72	348.36	1077.6	148.03	216.41	982.31	321.43	470.1	710.52	502.23	533.89	656.85	443.1	480.24	623.03	479.07	518.63	742.79	465.54	501.32	532.34	457.05	512.41	520.82	323.59	501.55	281.97	444.51	581	240.58	451.53	526.66	210.46	430.62	555.06	313.14	463.86	608.77	135.34	437.04	614.84	163.29	351.17	570.18	61.314	369.94	595.56	37.801	343.43	585.56	37.569	407.89	735.01	89.405	477.05	772.21	118.77	365.05	813.51	163.15	415.4	299.69	691.98	131.39	364.86	606.83	159.05	292.96	598.07	150.81	378.18	694.78	138.97	279.75	504.48	160.17	151.45	334.65	164.62	195.66	257.77	169.29	126.57	268.23	184.78	216.48	324.29	155.36	107.49	127.54	196.22	149.31	134.67	281.64	38.2	85.051	253.16	50.729	57.159	283.29	36.081	58.549	223.66	211.58	38.239	152.44	246.51	44.611	270.13	305.65	49.421	210.59	362.94	1552.1	320.46	241.63	1281.5	305.91
